<svg width="25" height="25" viewBox="0 0 25 25" fill="none" xmlns="http://www.w3.org/2000/svg">
<path d="M2.58661 12.2222C2.58661 6.52336 6.8608 2.14603 12.4253 2.14603C18.0302 2.14603 22.5866 6.52336 22.5866 12.2222C22.5866 16.806 19.8447 20.729 15.8124 22.0918C15.2882 22.2157 15.0866 21.8853 15.0866 21.5962C15.0866 21.3418 15.1215 20.146 15.1215 19.146C15.1215 18.146 14.4414 17.2278 14.4414 17.2278C16.6995 16.98 19.0785 15.6497 19.0785 11.6853C19.0785 10.529 18.6753 9.99219 18.0302 9.24887C18.1108 8.9598 18.4737 7.88611 17.9092 6.44077C17.0624 6.1517 15.1269 7.55575 15.1269 7.55575C14.3205 7.30798 13.4737 7.22538 12.5866 7.22538C11.7398 7.22538 10.8931 7.30798 10.0866 7.55575C10.0866 7.55575 8.1108 6.19299 7.30435 6.44077C6.73983 7.88611 7.06242 8.9598 7.18338 9.24887C6.53822 9.99219 6.21564 10.529 6.21564 11.6853C6.21564 15.6497 8.51403 16.98 10.7721 17.2278C10.7721 17.2278 10.0866 18.0084 10.0866 19.0772V21.6375C10.0866 21.8853 9.92532 22.2157 9.40112 22.1331C5.36887 20.729 2.58661 16.806 2.58661 12.2222Z" stroke="#333333" stroke-width="2" stroke-linecap="round" stroke-linejoin="round"/>
</svg>
