<svg width="25" height="25" viewBox="0 0 25 25" fill="none" xmlns="http://www.w3.org/2000/svg">
<path fill-rule="evenodd" clip-rule="evenodd" d="M10.043 1.14603H14.1305C15.4935 1.14602 16.5776 1.14601 17.4522 1.21747C18.3478 1.29064 19.1114 1.4437 19.8107 1.79999C20.9396 2.37523 21.8575 3.29311 22.4328 4.42208C22.7891 5.12133 22.9421 5.885 23.0153 6.7806C23.0867 7.65519 23.0867 8.73921 23.0867 10.1022V14.1898C23.0867 15.5528 23.0867 16.6369 23.0153 17.5114C22.9421 18.4071 22.7891 19.1707 22.4328 19.87C21.8575 20.9989 20.9396 21.9168 19.8107 22.4921C19.1114 22.8484 18.3478 23.0014 17.4522 23.0746C16.5776 23.146 15.4935 23.146 14.1305 23.146H10.0429C8.67991 23.146 7.59589 23.146 6.72131 23.0746C5.82571 23.0014 5.06204 22.8484 4.36279 22.4921C3.23382 21.9168 2.31593 20.9989 1.74069 19.87C1.38441 19.1707 1.23135 18.4071 1.15817 17.5114C1.08672 16.6369 1.08672 15.5528 1.08673 14.1898V10.1023C1.08672 8.73922 1.08672 7.65519 1.15817 6.7806C1.23135 5.885 1.38441 5.12133 1.74069 4.42208C2.31593 3.29311 3.23382 2.37523 4.36279 1.79999C5.06204 1.4437 5.82571 1.29064 6.72131 1.21747C7.5959 1.14601 8.67993 1.14602 10.043 1.14603ZM6.88417 3.21083C6.11225 3.2739 5.64108 3.39332 5.27077 3.582C4.51812 3.96549 3.9062 4.57742 3.52271 5.33006C3.33402 5.70038 3.2146 6.17155 3.15153 6.94347C3.08751 7.72706 3.08673 8.72939 3.08673 10.146V14.146C3.08673 15.5627 3.08751 16.565 3.15153 17.3486C3.2146 18.1205 3.33402 18.5917 3.52271 18.962C3.9062 19.7146 4.51812 20.3266 5.27077 20.7101C5.64108 20.8987 6.11225 21.0182 6.88417 21.0812C7.66777 21.1452 8.6701 21.146 10.0867 21.146H14.0867C15.5034 21.146 16.5057 21.1452 17.2893 21.0812C18.0612 21.0182 18.5324 20.8987 18.9027 20.7101C19.6553 20.3266 20.2673 19.7146 20.6508 18.962C20.8394 18.5917 20.9589 18.1205 21.0219 17.3486C21.086 16.565 21.0867 15.5627 21.0867 14.146V10.146C21.0867 8.72939 21.086 7.72706 21.0219 6.94347C20.9589 6.17155 20.8394 5.70038 20.6508 5.33006C20.2673 4.57742 19.6553 3.96549 18.9027 3.582C18.5324 3.39332 18.0612 3.2739 17.2893 3.21083C16.5057 3.1468 15.5034 3.14603 14.0867 3.14603H10.0867C8.6701 3.14603 7.66777 3.1468 6.88417 3.21083ZM6.08673 7.64603C6.08673 6.8176 6.7583 6.14603 7.58673 6.14603C8.41516 6.14603 9.08673 6.8176 9.08673 7.64603C9.08673 8.47445 8.41516 9.14603 7.58673 9.14603C6.7583 9.14603 6.08673 8.47445 6.08673 7.64603ZM7.58673 10.146C8.13902 10.146 8.58673 10.5937 8.58673 11.146V18.146C8.58673 18.6983 8.13902 19.146 7.58673 19.146C7.03445 19.146 6.58673 18.6983 6.58673 18.146V11.146C6.58673 10.5937 7.03445 10.146 7.58673 10.146ZM14.5867 12.146C13.4822 12.146 12.5867 13.0415 12.5867 14.146V18.146C12.5867 18.6983 12.139 19.146 11.5867 19.146C11.0344 19.146 10.5867 18.6983 10.5867 18.146V14.146C10.5867 11.9369 12.3776 10.146 14.5867 10.146C16.7959 10.146 18.5867 11.9369 18.5867 14.146V18.146C18.5867 18.6983 18.139 19.146 17.5867 19.146C17.0344 19.146 16.5867 18.6983 16.5867 18.146V14.146C16.5867 13.0415 15.6913 12.146 14.5867 12.146Z" fill="#333333"/>
</svg>
